<svg width="270" height="254" viewBox="0 0 270 254" fill="none" xmlns="http://www.w3.org/2000/svg">
<path d="M185.344 18.2009C185.344 13.4052 187.112 8.80579 190.259 5.41466C193.406 2.02353 197.674 0.118408 202.125 0.118408H235.688C240.138 0.118408 244.407 2.02353 247.554 5.41466C250.701 8.80579 252.469 13.4052 252.469 18.2009V235.191H260.859C263.085 235.191 265.219 236.144 266.792 237.84C268.366 239.535 269.25 241.835 269.25 244.233C269.25 246.631 268.366 248.93 266.792 250.626C265.219 252.321 263.085 253.274 260.859 253.274H9.14062C6.91529 253.274 4.7811 252.321 3.20756 250.626C1.63401 248.93 0.75 246.631 0.75 244.233C0.75 241.835 1.63401 239.535 3.20756 237.84C4.7811 236.144 6.91529 235.191 9.14062 235.191H17.5312V180.944C17.5312 176.148 19.2993 171.549 22.4464 168.158C25.5935 164.766 29.8618 162.861 34.3125 162.861H67.875C72.3257 162.861 76.594 164.766 79.7411 168.158C82.8882 171.549 84.6562 176.148 84.6562 180.944V235.191H101.438V108.614C101.438 103.818 103.206 99.2185 106.353 95.8274C109.5 92.4362 113.768 90.5311 118.219 90.5311H151.781C156.232 90.5311 160.5 92.4362 163.647 95.8274C166.794 99.2185 168.562 103.818 168.562 108.614V235.191H185.344V18.2009ZM202.125 235.191H235.688V18.2009H202.125V235.191ZM151.781 235.191V108.614H118.219V235.191H151.781ZM67.875 235.191V180.944H34.3125V235.191H67.875Z" fill="#05386B"/>
</svg>
